<svg width="107" height="36" viewBox="0 0 107 36" fill="none" xmlns="http://www.w3.org/2000/svg">
<g clip-path="url(#clip0_1968_1408)">
<path d="M10.5648 4.26839H3.19373V9.27864H10.3059V12.2361H3.19373V22.1624H0V1.31091H10.5648V4.26839Z" fill="#141414"/>
<path d="M19.1425 1.31091V13.8709C19.1425 15.6626 19.4391 16.9736 20.0325 17.8018C20.9185 18.9989 22.165 19.5974 23.7738 19.5974C25.3826 19.5974 26.6429 18.9989 27.529 17.8018C28.1223 17.0011 28.419 15.6901 28.419 13.8709V1.31091H31.6127V14.7363C31.6127 16.9343 30.9178 18.7438 29.53 20.1666C27.967 21.7523 26.0496 22.5431 23.7738 22.5431C21.4979 22.5431 19.5845 21.7503 18.0314 20.1666C16.6436 18.7438 15.9487 16.9343 15.9487 14.7363V1.31091H19.1425Z" fill="#141414"/>
<path d="M44.2025 4.26839V22.1644H41.0088V4.26839H36.1445V1.31091H49.0528V4.26839H44.2025Z" fill="#141414"/>
<path d="M56.7803 1.31091V13.8709C56.7803 15.6626 57.077 16.9736 57.6703 17.8018C58.5563 18.9989 59.8028 19.5974 61.4116 19.5974C63.0204 19.5974 64.2808 18.9989 65.1668 17.8018C65.7601 17.0011 66.0568 15.6901 66.0568 13.8709V1.31091H69.2505V14.7363C69.2505 16.9343 68.5557 18.7438 67.1679 20.1666C65.6048 21.7523 63.6874 22.5431 61.4116 22.5431C59.1357 22.5431 57.2223 21.7503 55.6692 20.1666C54.2814 18.7438 53.5865 16.9343 53.5865 14.7363V1.31091H56.7803Z" fill="#141414"/>
<path d="M87.5289 17.0992H78.4714L76.1139 22.1644H72.6753L83.1445 0L93.2434 22.1644H89.749L87.5289 17.0992ZM86.2267 14.1417L83.0888 7.05124L79.7995 14.1417H86.2267Z" fill="#141414"/>
<path d="M100.764 1.31091V19.2069H106.986V22.1644H97.572V1.31091H100.766H100.764Z" fill="#141414"/>
<path d="M53.493 30.8013C52.7642 30.8013 52.1729 31.3841 52.1729 32.1024C52.1729 32.8207 52.7642 33.4035 53.493 33.4035C54.2217 33.4035 54.8111 32.8207 54.8111 32.1024C54.8111 31.3841 54.2197 30.8013 53.493 30.8013Z" fill="#141414"/>
<path d="M5.75429 32.6187H7.78123V33.2349H0V32.6187H1.99309V30.611H0.346452V29.9948H1.99309V28.2717H2.64418V29.9948H5.09324V28.2717H5.75229V29.9948H7.46663V30.611H5.75229V32.6187H5.75429ZM2.40724 33.7275L3.07426 33.9865C2.53866 34.6243 1.8577 35.2111 1.0294 35.7429C0.888032 35.8371 0.750646 35.9235 0.615251 36.002C0.473882 35.8528 0.304639 35.7017 0.10752 35.5526C0.816352 35.1856 1.45151 34.7283 2.00902 34.1788C2.16632 34.0179 2.29972 33.8688 2.40525 33.7294L2.40724 33.7275ZM2.64418 30.613V32.6206H5.09324V30.613H2.64418ZM4.62135 34.0434L5.17886 33.7196C6.14852 34.3967 6.94297 35.0149 7.56221 35.5761C7.57415 35.5879 7.58212 35.5958 7.58809 35.6016L6.98877 35.9941C6.46511 35.478 5.69256 34.8422 4.67312 34.0866C4.6552 34.0689 4.63927 34.0552 4.62334 34.0454L4.62135 34.0434Z" fill="#141414"/>
<path d="M33.9124 35.1012H37.4188V35.7174H29.747V35.1012H33.2534V32.9365H30.6849V32.3281H33.2534V30.4638H31.2165C30.9238 31.0309 30.6231 31.4941 30.3125 31.8552C30.1493 31.7159 29.9541 31.5922 29.7291 31.4804C30.3942 30.7817 30.9178 29.7769 31.3001 28.466C31.3121 28.4208 31.322 28.3796 31.334 28.3404L31.985 28.4817C31.8337 28.9978 31.6704 29.4531 31.4952 29.8476H33.2534V28.2069H33.9124V29.8476H37.0126V30.4638H33.9124V32.3281H36.692V32.9365H33.9124V35.1012Z" fill="#141414"/>
<path d="M77.1034 32.3026H73.9933C74.5448 33.0739 75.2636 33.7568 76.1477 34.3515C76.5419 34.6125 76.9242 34.8225 77.2965 34.9854C77.1452 35.1129 76.9899 35.2935 76.8326 35.527C75.9267 35.0776 75.0705 34.4143 74.2641 33.537C74.0271 33.2819 73.8141 33.0268 73.6229 32.7717V35.9941H72.9559V32.805C72.2969 33.698 71.4825 34.4594 70.5148 35.0874C70.262 35.2542 70.0131 35.3975 69.7722 35.5211C69.593 35.2817 69.4376 35.107 69.3082 34.9971C70.1863 34.6144 71.0166 34.0316 71.8011 33.2485C72.1117 32.9326 72.3745 32.6186 72.5955 32.3065H69.5452V31.6903H72.9579V30.2243H70.1624V29.6003H72.9579V28.2089H73.6249V29.6003H76.5061V30.2243H73.6249V31.6903H77.1054V32.3065L77.1034 32.3026Z" fill="#141414"/>
<path d="M103.302 30.0045V32.0279C103.81 32.8717 104.527 33.6096 105.457 34.2435C105.962 34.587 106.474 34.8578 106.986 35.0521C106.811 35.1973 106.653 35.3857 106.512 35.6173C105.505 35.1796 104.589 34.5045 103.766 33.5939C103.597 33.4114 103.442 33.225 103.302 33.0366V35.9843H102.643V33.0621C101.901 34.0061 101.017 34.7636 99.9912 35.3347C99.8159 35.4289 99.6447 35.5152 99.4755 35.5937C99.346 35.3877 99.1967 35.211 99.0275 35.0599C100.001 34.6655 100.897 34.0551 101.713 33.2289C102.086 32.8521 102.394 32.4714 102.643 32.0887V30.0065H99.3321V29.3824H102.643V28.2089H103.302V29.3824H106.733V30.0065H103.302V30.0045ZM100.825 30.2047L101.459 30.3127C101.397 30.5854 101.283 30.921 101.12 31.3194C101.576 31.7139 101.903 32.0239 102.1 32.2516L101.652 32.6932C101.516 32.5205 101.25 32.2438 100.849 31.8611C100.557 32.3949 100.192 32.8403 99.7602 33.2014C99.5969 33.0464 99.4277 32.909 99.2525 32.7932C100.035 32.2045 100.559 31.341 100.823 30.2028L100.825 30.2047ZM104.899 30.2047L105.516 30.3048C105.461 30.5992 105.361 30.9348 105.22 31.3116C105.913 31.8395 106.43 32.2752 106.775 32.6186L106.319 33.0601C106.042 32.754 105.592 32.3478 104.967 31.8356C104.73 32.2575 104.477 32.5931 104.206 32.8423C103.991 32.6814 103.814 32.5676 103.675 32.5008C104.284 31.9847 104.692 31.2193 104.899 30.2028V30.2047Z" fill="#141414"/>
</g>
<defs>
<clipPath id="clip0_1968_1408">
<rect width="106.986" height="36" fill="white"/>
</clipPath>
</defs>
</svg>
